<svg width="18" height="18" viewBox="0 0 18 18" fill="none" xmlns="http://www.w3.org/2000/svg">
<path d="M8.99999 15.6667C12.6667 15.6667 15.6667 12.6667 15.6667 9.00002C15.6667 5.33335 12.6667 2.33335 8.99999 2.33335C5.33332 2.33335 2.33332 5.33335 2.33332 9.00002C2.33332 12.6667 5.33332 15.6667 8.99999 15.6667ZM8.99999 0.666687C13.5833 0.666687 17.3333 4.41669 17.3333 9.00002C17.3333 13.5834 13.5833 17.3334 8.99999 17.3334C4.41666 17.3334 0.666656 13.5834 0.666656 9.00002C0.666656 4.41669 4.41666 0.666687 8.99999 0.666687ZM9.41666 9.66669L5.41666 12L4.83332 10.8334L8.16666 8.91669V4.83335H9.41666V9.66669Z" fill="#F79F1A"/>
</svg>
